<svg fill="none" height="24" width="110" xmlns="http://www.w3.org/2000/svg"><clipPath id="logo_vk_video_color_with_text_24h__a"><path d="M30 0h80v22.33H30z"></path></clipPath><path clip-rule="evenodd" d="M24 12.5c0 5.42 0 8.13-1.68 9.82C20.63 24 17.92 24 12.5 24h-1c-5.42 0-8.13 0-9.82-1.68C0 20.63 0 17.92 0 12.5v-1c0-5.42 0-8.13 1.68-9.82C3.37 0 6.08 0 11.5 0h1c5.42 0 8.13 0 9.82 1.68C24 3.37 24 6.08 24 11.5z" fill="#07f" fill-rule="evenodd"></path><path d="M9.93 0c4.4.02 6.74.17 8.25 1.68 1.68 1.69 1.68 4.4 1.68 9.82v1c0 5.42 0 8.13-1.68 9.82-1.51 1.5-3.86 1.66-8.25 1.68-4.39-.02-6.73-.17-8.25-1.68C0 20.63 0 17.92 0 12.5v-1c0-5.42 0-8.13 1.68-9.82C3.2.17 5.54.02 9.93 0z" fill="#ff2b42"></path><path clip-rule="evenodd" d="M8.04 8.32a.51.51 0 00-.7.39 16.96 16.96 0 00-.3 3.26c0 1.14.1 2.25.32 3.32a.51.51 0 00.7.4 16.42 16.42 0 005.42-3.3.53.53 0 000-.78 16.42 16.42 0 00-5.44-3.3zM4.9 8.23a3 3 0 013.97-2.25 18.9 18.9 0 016.27 3.79 3 3 0 010 4.46 18.9 18.9 0 01-6.25 3.78 3 3 0 01-3.97-2.23 19.44 19.44 0 01-.38-3.81c0-1.28.13-2.53.36-3.74z" fill="#fff" fill-rule="evenodd"></path><g clip-path="url(#logo_vk_video_color_with_text_24h__a)" fill="currentColor"><path d="M34.26 18.06h3L41.64 6h-2.18l-3.52 9.94h-.34L32.21 6H30zm18.63 0l-5.54-6.24L52.46 6h-2.53l-4.28 4.9h-.5V6H43.1v12.06h2.06v-5.17h.51l4.51 5.17zm11.77-6.2a2.66 2.66 0 001.73-2.58C66.39 7.37 64.8 6 62.47 6h-4.7v12.06h5.04c2.35 0 3.94-1.37 3.94-3.37 0-1.4-.79-2.45-2.09-2.82zM59.82 7.8h2.65c1.1 0 1.85.66 1.85 1.66 0 .97-.75 1.64-1.85 1.64h-2.65zm3 8.46h-3V12.9h3c1.07 0 1.82.69 1.82 1.68 0 1-.75 1.7-1.83 1.7zm5.8 1.8h2.79l3.32-6.6H75v6.6h1.88v-8.9H74.1l-3.31 6.6h-.28v-6.6h-1.88zm9.55 2.65h1.97v-2.65h6.4v2.65h1.96v-4.45h-1.54v-7.1h-6.52L80 13.71c-.15 1.61-.63 2.55-1.6 2.55h-.23zm3-4.45c.47-.46.68-1.25.81-2.58l.28-2.72h2.73v5.3zm17.25-2.75a4.43 4.43 0 00-4.62-4.52 4.45 4.45 0 00-4.61 4.62 4.45 4.45 0 004.62 4.62c1.84 0 3.59-.87 4.25-2.57l-1.84-.3a2.7 2.7 0 01-2.3 1.07c-1.5 0-2.5-.92-2.68-2.29h7.15c.02-.19.03-.4.03-.63zm-4.62-2.8c1.24 0 2.16.78 2.49 1.9h-4.93a2.49 2.49 0 012.45-1.9zm10.4 7.52c2.78 0 4.75-1.92 4.75-4.62S106.98 9 104.2 9c-2.79 0-4.76 1.92-4.76 4.62s1.97 4.62 4.76 4.62zm0-1.8c-1.61 0-2.7-1.14-2.7-2.82 0-1.67 1.09-2.82 2.7-2.82 1.6 0 2.7 1.15 2.7 2.82 0 1.68-1.1 2.82-2.7 2.82z"></path></g></svg>